<mxfile host="app.diagrams.net" modified="2023-10-24T17:24:12.258Z" agent="Mozilla/5.0 (Windows NT 10.0; Win64; x64) AppleWebKit/537.36 (KHTML, like Gecko) Chrome/116.0.0.0 Safari/537.36 OPR/102.0.0.0" etag="8TnMOK6VYZBzh8U4CaHJ" version="22.0.6" type="github">
  <diagram name="Page-1" id="7e7NwFTVQ0d2gSkj2mEa">
    <mxGraphModel dx="297" dy="514" grid="1" gridSize="10" guides="1" tooltips="1" connect="1" arrows="1" fold="1" page="1" pageScale="1" pageWidth="1169" pageHeight="827" math="0" shadow="0">
      <root>
        <mxCell id="0" />
        <mxCell id="1" parent="0" />
        <mxCell id="1g4suXIL8E-zPy5jH3K--1" value="" style="verticalLabelPosition=bottom;shadow=0;dashed=0;align=center;html=1;verticalAlign=top;shape=mxgraph.electrical.logic_gates.logic_gate;operation=xor;" vertex="1" parent="1">
          <mxGeometry x="160" y="240" width="100" height="60" as="geometry" />
        </mxCell>
        <mxCell id="1g4suXIL8E-zPy5jH3K--10" style="edgeStyle=orthogonalEdgeStyle;shape=connector;rounded=0;orthogonalLoop=1;jettySize=auto;html=1;exitX=0;exitY=0.25;exitDx=0;exitDy=0;exitPerimeter=0;labelBackgroundColor=default;strokeColor=default;align=center;verticalAlign=middle;fontFamily=Helvetica;fontSize=11;fontColor=default;endArrow=none;endFill=0;endSize=6;" edge="1" parent="1" source="1g4suXIL8E-zPy5jH3K--2">
          <mxGeometry relative="1" as="geometry">
            <mxPoint x="120" y="255" as="targetPoint" />
          </mxGeometry>
        </mxCell>
        <mxCell id="1g4suXIL8E-zPy5jH3K--11" style="edgeStyle=orthogonalEdgeStyle;shape=connector;rounded=0;orthogonalLoop=1;jettySize=auto;html=1;exitX=0;exitY=0.75;exitDx=0;exitDy=0;exitPerimeter=0;labelBackgroundColor=default;strokeColor=default;align=center;verticalAlign=middle;fontFamily=Helvetica;fontSize=11;fontColor=default;endArrow=none;endFill=0;" edge="1" parent="1" source="1g4suXIL8E-zPy5jH3K--2">
          <mxGeometry relative="1" as="geometry">
            <mxPoint x="100" y="285" as="targetPoint" />
          </mxGeometry>
        </mxCell>
        <mxCell id="1g4suXIL8E-zPy5jH3K--2" value="" style="verticalLabelPosition=bottom;shadow=0;dashed=0;align=center;html=1;verticalAlign=top;shape=mxgraph.electrical.logic_gates.logic_gate;operation=and;" vertex="1" parent="1">
          <mxGeometry x="160" y="330" width="100" height="60" as="geometry" />
        </mxCell>
        <mxCell id="1g4suXIL8E-zPy5jH3K--8" style="edgeStyle=orthogonalEdgeStyle;rounded=0;orthogonalLoop=1;jettySize=auto;html=1;exitX=0;exitY=0.25;exitDx=0;exitDy=0;exitPerimeter=0;entryX=0.9;entryY=0.5;entryDx=0;entryDy=0;entryPerimeter=0;endArrow=none;endFill=0;" edge="1" parent="1" source="1g4suXIL8E-zPy5jH3K--1">
          <mxGeometry relative="1" as="geometry">
            <mxPoint x="89" y="255" as="targetPoint" />
          </mxGeometry>
        </mxCell>
        <mxCell id="1g4suXIL8E-zPy5jH3K--9" style="edgeStyle=orthogonalEdgeStyle;shape=connector;rounded=0;orthogonalLoop=1;jettySize=auto;html=1;exitX=0;exitY=0.75;exitDx=0;exitDy=0;exitPerimeter=0;entryX=0.9;entryY=0.5;entryDx=0;entryDy=0;entryPerimeter=0;labelBackgroundColor=default;strokeColor=default;align=center;verticalAlign=middle;fontFamily=Helvetica;fontSize=11;fontColor=default;endArrow=none;endFill=0;" edge="1" parent="1" source="1g4suXIL8E-zPy5jH3K--1">
          <mxGeometry relative="1" as="geometry">
            <mxPoint x="89" y="285" as="targetPoint" />
          </mxGeometry>
        </mxCell>
        <mxCell id="1g4suXIL8E-zPy5jH3K--12" value="" style="verticalLabelPosition=bottom;shadow=0;dashed=0;align=center;html=1;verticalAlign=top;shape=mxgraph.electrical.logic_gates.inverting_contact;fontFamily=Helvetica;fontSize=11;fontColor=default;" vertex="1" parent="1">
          <mxGeometry x="280" y="265" width="10" height="10" as="geometry" />
        </mxCell>
        <mxCell id="1g4suXIL8E-zPy5jH3K--13" value="" style="verticalLabelPosition=bottom;shadow=0;dashed=0;align=center;html=1;verticalAlign=top;shape=mxgraph.electrical.logic_gates.inverting_contact;fontFamily=Helvetica;fontSize=11;fontColor=default;" vertex="1" parent="1">
          <mxGeometry x="280" y="355" width="10" height="10" as="geometry" />
        </mxCell>
        <mxCell id="1g4suXIL8E-zPy5jH3K--14" style="edgeStyle=orthogonalEdgeStyle;shape=connector;rounded=0;orthogonalLoop=1;jettySize=auto;html=1;exitX=1;exitY=0.5;exitDx=0;exitDy=0;exitPerimeter=0;entryX=0.1;entryY=0.5;entryDx=0;entryDy=0;entryPerimeter=0;labelBackgroundColor=default;strokeColor=default;align=center;verticalAlign=middle;fontFamily=Helvetica;fontSize=11;fontColor=default;endArrow=none;endFill=0;" edge="1" parent="1" source="1g4suXIL8E-zPy5jH3K--2" target="1g4suXIL8E-zPy5jH3K--13">
          <mxGeometry relative="1" as="geometry" />
        </mxCell>
        <mxCell id="1g4suXIL8E-zPy5jH3K--15" style="edgeStyle=orthogonalEdgeStyle;shape=connector;rounded=0;orthogonalLoop=1;jettySize=auto;html=1;exitX=1;exitY=0.5;exitDx=0;exitDy=0;exitPerimeter=0;entryX=0.1;entryY=0.5;entryDx=0;entryDy=0;entryPerimeter=0;labelBackgroundColor=default;strokeColor=default;align=center;verticalAlign=middle;fontFamily=Helvetica;fontSize=11;fontColor=default;endArrow=none;endFill=0;" edge="1" parent="1" source="1g4suXIL8E-zPy5jH3K--1" target="1g4suXIL8E-zPy5jH3K--12">
          <mxGeometry relative="1" as="geometry" />
        </mxCell>
        <mxCell id="1g4suXIL8E-zPy5jH3K--16" value="&lt;font style=&quot;font-size: 25px;&quot;&gt;S&lt;/font&gt;" style="text;html=1;align=center;verticalAlign=middle;resizable=0;points=[];autosize=1;strokeColor=none;fillColor=none;fontSize=11;fontFamily=Helvetica;fontColor=default;" vertex="1" parent="1">
          <mxGeometry x="280" y="250" width="40" height="40" as="geometry" />
        </mxCell>
        <mxCell id="1g4suXIL8E-zPy5jH3K--17" value="&lt;font style=&quot;font-size: 25px;&quot;&gt;C&lt;/font&gt;" style="text;html=1;align=center;verticalAlign=middle;resizable=0;points=[];autosize=1;strokeColor=none;fillColor=none;fontSize=11;fontFamily=Helvetica;fontColor=default;" vertex="1" parent="1">
          <mxGeometry x="280" y="340" width="40" height="40" as="geometry" />
        </mxCell>
        <mxCell id="1g4suXIL8E-zPy5jH3K--18" value="&lt;font style=&quot;font-size: 25px;&quot;&gt;A&lt;/font&gt;" style="text;html=1;align=center;verticalAlign=middle;resizable=0;points=[];autosize=1;strokeColor=none;fillColor=none;fontSize=11;fontFamily=Helvetica;fontColor=default;" vertex="1" parent="1">
          <mxGeometry x="40" y="235" width="40" height="40" as="geometry" />
        </mxCell>
        <mxCell id="1g4suXIL8E-zPy5jH3K--19" value="&lt;font style=&quot;font-size: 25px;&quot;&gt;B&lt;/font&gt;" style="text;html=1;align=center;verticalAlign=middle;resizable=0;points=[];autosize=1;strokeColor=none;fillColor=none;fontSize=11;fontFamily=Helvetica;fontColor=default;" vertex="1" parent="1">
          <mxGeometry x="40" y="265" width="40" height="40" as="geometry" />
        </mxCell>
        <mxCell id="1g4suXIL8E-zPy5jH3K--20" value="" style="verticalLabelPosition=bottom;shadow=0;dashed=0;align=center;html=1;verticalAlign=top;shape=mxgraph.electrical.logic_gates.inverting_contact;fontFamily=Helvetica;fontSize=11;fontColor=default;fillColor=#000000;" vertex="1" parent="1">
          <mxGeometry x="115" y="250" width="10" height="10" as="geometry" />
        </mxCell>
        <mxCell id="1g4suXIL8E-zPy5jH3K--22" value="" style="verticalLabelPosition=bottom;shadow=0;dashed=0;align=center;html=1;verticalAlign=top;shape=mxgraph.electrical.logic_gates.inverting_contact;fontFamily=Helvetica;fontSize=11;fontColor=default;fillColor=#000000;" vertex="1" parent="1">
          <mxGeometry x="95" y="280" width="10" height="10" as="geometry" />
        </mxCell>
        <mxCell id="1g4suXIL8E-zPy5jH3K--31" style="edgeStyle=orthogonalEdgeStyle;shape=connector;rounded=0;orthogonalLoop=1;jettySize=auto;html=1;exitX=0.9;exitY=0.5;exitDx=0;exitDy=0;exitPerimeter=0;labelBackgroundColor=default;strokeColor=default;align=center;verticalAlign=middle;fontFamily=Helvetica;fontSize=11;fontColor=default;endArrow=none;endFill=0;" edge="1" parent="1" source="1g4suXIL8E-zPy5jH3K--28">
          <mxGeometry relative="1" as="geometry">
            <mxPoint x="90" y="255" as="targetPoint" />
          </mxGeometry>
        </mxCell>
        <mxCell id="1g4suXIL8E-zPy5jH3K--28" value="" style="verticalLabelPosition=bottom;shadow=0;dashed=0;align=center;html=1;verticalAlign=top;shape=mxgraph.electrical.logic_gates.inverting_contact;fontFamily=Helvetica;fontSize=11;fontColor=default;" vertex="1" parent="1">
          <mxGeometry x="70" y="250" width="10" height="10" as="geometry" />
        </mxCell>
        <mxCell id="1g4suXIL8E-zPy5jH3K--30" style="edgeStyle=orthogonalEdgeStyle;shape=connector;rounded=0;orthogonalLoop=1;jettySize=auto;html=1;exitX=0.9;exitY=0.5;exitDx=0;exitDy=0;exitPerimeter=0;labelBackgroundColor=default;strokeColor=default;align=center;verticalAlign=middle;fontFamily=Helvetica;fontSize=11;fontColor=default;endArrow=none;endFill=0;" edge="1" parent="1" source="1g4suXIL8E-zPy5jH3K--29">
          <mxGeometry relative="1" as="geometry">
            <mxPoint x="90" y="285" as="targetPoint" />
          </mxGeometry>
        </mxCell>
        <mxCell id="1g4suXIL8E-zPy5jH3K--29" value="" style="verticalLabelPosition=bottom;shadow=0;dashed=0;align=center;html=1;verticalAlign=top;shape=mxgraph.electrical.logic_gates.inverting_contact;fontFamily=Helvetica;fontSize=11;fontColor=default;" vertex="1" parent="1">
          <mxGeometry x="70" y="280" width="10" height="10" as="geometry" />
        </mxCell>
      </root>
    </mxGraphModel>
  </diagram>
</mxfile>
